<svg width="120" height="104" viewBox="0 0 120 104" fill="none" xmlns="http://www.w3.org/2000/svg">
<path d="M52.2572 29.8429C51.693 29.4373 51.029 29.1963 50.3381 29.1463C49.6472 29.0964 48.956 29.2394 48.3403 29.5596C47.7245 29.8799 47.208 30.3651 46.8472 30.9621C46.4864 31.5591 46.2953 32.2448 46.2949 32.9442V71.0433C46.2953 71.7427 46.4864 72.4284 46.8472 73.0254C47.208 73.6223 47.7245 74.1076 48.3403 74.4278C48.956 74.7481 49.6472 74.8911 50.3381 74.8412C51.029 74.7912 51.693 74.5502 52.2572 74.1446L78.6725 55.095C79.1616 54.7426 79.5604 54.2773 79.8355 53.7379C80.1106 53.1984 80.2541 52.6005 80.2541 51.9937C80.2541 51.387 80.1106 50.789 79.8355 50.2496C79.5604 49.7102 79.1616 49.2449 78.6725 48.8925L52.2572 29.8429Z" fill="white"/>
<path d="M2.68008 17.708C2.68008 13.7184 4.26495 9.89222 7.08603 7.07114C9.90712 4.25005 13.7333 2.66519 17.7229 2.66519H102.458C106.447 2.66519 110.274 4.25005 113.095 7.07114C115.916 9.89222 117.501 13.7184 117.501 17.708V86.2795C117.501 90.2691 115.916 94.0953 113.095 96.9164C110.274 99.7375 106.447 101.322 102.458 101.322H17.7229C13.7333 101.322 9.90711 99.7375 7.08603 96.9164C4.26495 94.0953 2.68008 90.2691 2.68008 86.2795V17.708Z" stroke="white" stroke-width="4.2"/>
</svg>
